<mxfile host="65bd71144e">
    <diagram id="jzdl-6jRqsocLXblkNBT" name="Page-1">
        <mxGraphModel dx="1568" dy="574" grid="1" gridSize="10" guides="1" tooltips="1" connect="1" arrows="1" fold="1" page="1" pageScale="1" pageWidth="827" pageHeight="1169" math="0" shadow="0">
            <root>
                <mxCell id="0"/>
                <mxCell id="1" parent="0"/>
                <mxCell id="109" value="" style="verticalLabelPosition=bottom;verticalAlign=top;html=1;shape=card;whiteSpace=wrap;size=20;arcSize=12;fontSize=12;labelBackgroundColor=none;" parent="1" vertex="1">
                    <mxGeometry x="28" y="50" width="770" height="660" as="geometry"/>
                </mxCell>
                <mxCell id="105" value="" style="verticalLabelPosition=bottom;verticalAlign=top;html=1;shape=card;whiteSpace=wrap;size=20;arcSize=12;fontSize=12;" parent="1" vertex="1">
                    <mxGeometry x="28" y="750" width="770" height="397" as="geometry"/>
                </mxCell>
                <mxCell id="11" style="edgeStyle=orthogonalEdgeStyle;rounded=0;orthogonalLoop=1;jettySize=auto;html=1;entryX=0.5;entryY=0;entryDx=0;entryDy=0;strokeWidth=3;fontStyle=0;fontSize=12;" parent="1" source="74" target="25" edge="1">
                    <mxGeometry relative="1" as="geometry">
                        <mxPoint x="607" y="630" as="targetPoint"/>
                        <mxPoint x="451" y="160" as="sourcePoint"/>
                    </mxGeometry>
                </mxCell>
                <mxCell id="10" style="edgeStyle=orthogonalEdgeStyle;rounded=0;orthogonalLoop=1;jettySize=auto;html=1;exitX=1;exitY=0.5;exitDx=0;exitDy=0;entryX=0.5;entryY=0;entryDx=0;entryDy=0;strokeWidth=3;fontStyle=0;fontSize=12;" parent="1" target="25" edge="1">
                    <mxGeometry relative="1" as="geometry">
                        <mxPoint x="607.25" y="543.48" as="targetPoint"/>
                        <mxPoint x="451" y="280" as="sourcePoint"/>
                    </mxGeometry>
                </mxCell>
                <mxCell id="15" style="edgeStyle=orthogonalEdgeStyle;rounded=0;orthogonalLoop=1;jettySize=auto;html=1;strokeWidth=3;fontStyle=0;fontSize=12;" parent="1" target="8" edge="1">
                    <mxGeometry relative="1" as="geometry">
                        <mxPoint x="306" y="320" as="sourcePoint"/>
                    </mxGeometry>
                </mxCell>
                <mxCell id="31" style="edgeStyle=orthogonalEdgeStyle;rounded=0;orthogonalLoop=1;jettySize=auto;html=1;entryX=0.5;entryY=0;entryDx=0;entryDy=0;strokeWidth=3;fontStyle=0;fontSize=12;" parent="1" source="70" target="34" edge="1">
                    <mxGeometry relative="1" as="geometry">
                        <mxPoint x="306" y="710" as="targetPoint"/>
                    </mxGeometry>
                </mxCell>
                <mxCell id="39" style="edgeStyle=orthogonalEdgeStyle;rounded=0;orthogonalLoop=1;jettySize=auto;html=1;entryX=0.5;entryY=0;entryDx=0;entryDy=0;strokeWidth=3;fontStyle=0;fontSize=12;" parent="1" source="8" target="25" edge="1">
                    <mxGeometry relative="1" as="geometry"/>
                </mxCell>
                <mxCell id="8" value="対象のアプリで&lt;br&gt;ユーザーの割り当てが必要" style="rhombus;whiteSpace=wrap;html=1;strokeWidth=3;fontStyle=0;fontSize=12;" parent="1" vertex="1">
                    <mxGeometry x="161" y="360" width="290" height="80" as="geometry"/>
                </mxCell>
                <mxCell id="13" value="Yes" style="text;html=1;strokeColor=none;fillColor=none;align=center;verticalAlign=middle;whiteSpace=wrap;rounded=0;strokeWidth=3;fontStyle=0;fontSize=12;" parent="1" vertex="1">
                    <mxGeometry x="455" y="260" width="40" height="20" as="geometry"/>
                </mxCell>
                <mxCell id="14" value="Yes" style="text;html=1;strokeColor=none;fillColor=none;align=center;verticalAlign=middle;whiteSpace=wrap;rounded=0;strokeWidth=3;fontStyle=0;fontSize=12;" parent="1" vertex="1">
                    <mxGeometry x="455" y="380" width="40" height="20" as="geometry"/>
                </mxCell>
                <mxCell id="19" style="edgeStyle=orthogonalEdgeStyle;rounded=0;orthogonalLoop=1;jettySize=auto;html=1;exitX=0.5;exitY=1;exitDx=0;exitDy=0;strokeWidth=3;fontStyle=0;fontSize=12;entryX=0.5;entryY=0;entryDx=0;entryDy=0;" parent="1" source="25" target="38" edge="1">
                    <mxGeometry relative="1" as="geometry">
                        <mxPoint x="176" y="760" as="targetPoint"/>
                        <mxPoint x="619.5" y="770" as="sourcePoint"/>
                        <Array as="points">
                            <mxPoint x="620" y="728"/>
                            <mxPoint x="176" y="728"/>
                        </Array>
                    </mxGeometry>
                </mxCell>
                <mxCell id="25" value="管理者による同意が必要" style="ellipse;whiteSpace=wrap;html=1;strokeWidth=3;fontStyle=0;fontSize=12;" parent="1" vertex="1">
                    <mxGeometry x="559.5" y="605" width="120" height="80" as="geometry"/>
                </mxCell>
                <mxCell id="34" value="ユーザー自身による同意が可能" style="ellipse;whiteSpace=wrap;html=1;strokeWidth=3;fontStyle=0;fontSize=12;" parent="1" vertex="1">
                    <mxGeometry x="246" y="605" width="120" height="80" as="geometry"/>
                </mxCell>
                <mxCell id="45" style="edgeStyle=orthogonalEdgeStyle;rounded=0;orthogonalLoop=1;jettySize=auto;html=1;entryX=0.023;entryY=0.504;entryDx=0;entryDy=0;entryPerimeter=0;strokeWidth=3;fontStyle=0;fontSize=12;" parent="1" source="38" target="43" edge="1">
                    <mxGeometry relative="1" as="geometry"/>
                </mxCell>
                <mxCell id="51" style="edgeStyle=orthogonalEdgeStyle;rounded=0;orthogonalLoop=1;jettySize=auto;html=1;strokeWidth=3;fontStyle=0;fontSize=12;" parent="1" source="38" target="49" edge="1">
                    <mxGeometry relative="1" as="geometry"/>
                </mxCell>
                <mxCell id="38" value="クラウド アプリケーション&lt;br&gt;管理者ロールを持っているユーザーである" style="rhombus;whiteSpace=wrap;html=1;strokeWidth=3;fontStyle=0;fontSize=10;" parent="1" vertex="1">
                    <mxGeometry x="51" y="810" width="250" height="80" as="geometry"/>
                </mxCell>
                <mxCell id="37" value="管理者による同意が可能" style="ellipse;whiteSpace=wrap;html=1;strokeWidth=3;fontStyle=0;fontSize=12;" parent="1" vertex="1">
                    <mxGeometry x="656" y="810" width="120" height="80" as="geometry"/>
                </mxCell>
                <mxCell id="48" style="edgeStyle=orthogonalEdgeStyle;rounded=0;orthogonalLoop=1;jettySize=auto;html=1;entryX=0.5;entryY=1;entryDx=0;entryDy=0;strokeWidth=3;fontStyle=0;fontSize=12;" parent="1" source="42" target="37" edge="1">
                    <mxGeometry relative="1" as="geometry"/>
                </mxCell>
                <mxCell id="42" value="Microsoft Graph API の&lt;br&gt;アプリケーションのアクセス許可&lt;br&gt;を求めている" style="rhombus;whiteSpace=wrap;html=1;strokeWidth=3;fontStyle=0;fontSize=12;" parent="1" vertex="1">
                    <mxGeometry x="341" y="930" width="260" height="80" as="geometry"/>
                </mxCell>
                <mxCell id="46" style="edgeStyle=orthogonalEdgeStyle;rounded=0;orthogonalLoop=1;jettySize=auto;html=1;strokeWidth=3;fontStyle=0;fontSize=12;" parent="1" source="43" target="37" edge="1">
                    <mxGeometry relative="1" as="geometry"/>
                </mxCell>
                <mxCell id="47" style="edgeStyle=orthogonalEdgeStyle;rounded=0;orthogonalLoop=1;jettySize=auto;html=1;exitX=0.5;exitY=1;exitDx=0;exitDy=0;entryX=0.5;entryY=0;entryDx=0;entryDy=0;strokeWidth=3;fontStyle=0;fontSize=12;" parent="1" source="43" target="42" edge="1">
                    <mxGeometry relative="1" as="geometry"/>
                </mxCell>
                <mxCell id="43" value="アプリはユーザー委任の権限&lt;br&gt;を求めている" style="rhombus;whiteSpace=wrap;html=1;strokeWidth=3;fontStyle=0;fontSize=12;" parent="1" vertex="1">
                    <mxGeometry x="341" y="810" width="260" height="80" as="geometry"/>
                </mxCell>
                <mxCell id="49" value="管理ロールを持つユーザーに依頼が必要" style="ellipse;whiteSpace=wrap;html=1;strokeWidth=3;fontStyle=0;fontSize=12;" parent="1" vertex="1">
                    <mxGeometry x="103" y="930" width="146" height="80" as="geometry"/>
                </mxCell>
                <mxCell id="52" value="Yes" style="text;html=1;strokeColor=none;fillColor=none;align=center;verticalAlign=middle;whiteSpace=wrap;rounded=0;strokeWidth=3;fontStyle=0;fontSize=12;" parent="1" vertex="1">
                    <mxGeometry x="301" y="830" width="40" height="20" as="geometry"/>
                </mxCell>
                <mxCell id="53" value="Yes" style="text;html=1;strokeColor=none;fillColor=none;align=center;verticalAlign=middle;whiteSpace=wrap;rounded=0;strokeWidth=3;fontStyle=0;fontSize=12;" parent="1" vertex="1">
                    <mxGeometry x="598.5" y="830" width="40" height="20" as="geometry"/>
                </mxCell>
                <mxCell id="54" value="No" style="text;html=1;strokeColor=none;fillColor=none;align=center;verticalAlign=middle;whiteSpace=wrap;rounded=0;strokeWidth=3;fontStyle=0;fontSize=12;" parent="1" vertex="1">
                    <mxGeometry x="478.5" y="900" width="40" height="20" as="geometry"/>
                </mxCell>
                <mxCell id="55" value="No" style="text;html=1;strokeColor=none;fillColor=none;align=center;verticalAlign=middle;whiteSpace=wrap;rounded=0;strokeWidth=3;fontStyle=0;fontSize=12;" parent="1" vertex="1">
                    <mxGeometry x="601" y="950" width="40" height="20" as="geometry"/>
                </mxCell>
                <mxCell id="57" value="No" style="text;html=1;strokeColor=none;fillColor=none;align=center;verticalAlign=middle;whiteSpace=wrap;rounded=0;strokeWidth=3;fontStyle=0;fontSize=12;" parent="1" vertex="1">
                    <mxGeometry x="178.5" y="900" width="40" height="20" as="geometry"/>
                </mxCell>
                <mxCell id="58" value="No" style="text;html=1;strokeColor=none;fillColor=none;align=center;verticalAlign=middle;whiteSpace=wrap;rounded=0;strokeWidth=3;fontStyle=0;fontSize=12;" parent="1" vertex="1">
                    <mxGeometry x="311" y="450" width="40" height="20" as="geometry"/>
                </mxCell>
                <mxCell id="59" value="No" style="text;html=1;strokeColor=none;fillColor=none;align=center;verticalAlign=middle;whiteSpace=wrap;rounded=0;strokeWidth=3;fontStyle=0;fontSize=12;" parent="1" vertex="1">
                    <mxGeometry x="311" y="330" width="40" height="20" as="geometry"/>
                </mxCell>
                <mxCell id="60" value="No" style="text;html=1;align=center;verticalAlign=middle;whiteSpace=wrap;rounded=1;strokeWidth=3;glass=0;shadow=1;fontStyle=0;fontSize=12;" parent="1" vertex="1">
                    <mxGeometry x="310" y="130" width="40" height="20" as="geometry"/>
                </mxCell>
                <mxCell id="64" value="Yes" style="text;html=1;strokeColor=none;fillColor=none;align=center;verticalAlign=middle;whiteSpace=wrap;rounded=0;strokeWidth=3;fontStyle=0;fontSize=12;" parent="1" vertex="1">
                    <mxGeometry x="455" y="140" width="40" height="20" as="geometry"/>
                </mxCell>
                <mxCell id="88" style="edgeStyle=orthogonalEdgeStyle;rounded=0;orthogonalLoop=1;jettySize=auto;html=1;exitX=1;exitY=0.5;exitDx=0;exitDy=0;entryX=0.5;entryY=0;entryDx=0;entryDy=0;strokeWidth=3;" parent="1" source="70" target="25" edge="1">
                    <mxGeometry relative="1" as="geometry"/>
                </mxCell>
                <mxCell id="70" value="Azure AD によりリスクが高い&lt;br&gt;同意要求だと判断された" style="rhombus;whiteSpace=wrap;html=1;strokeWidth=3;fontStyle=0;fontSize=12;" parent="1" vertex="1">
                    <mxGeometry x="161" y="480" width="290" height="75" as="geometry"/>
                </mxCell>
                <mxCell id="72" style="edgeStyle=orthogonalEdgeStyle;rounded=0;orthogonalLoop=1;jettySize=auto;html=1;entryX=0.5;entryY=0;entryDx=0;entryDy=0;strokeWidth=3;fontStyle=0;fontSize=12;" parent="1" source="8" target="70" edge="1">
                    <mxGeometry relative="1" as="geometry">
                        <mxPoint x="306" y="700" as="targetPoint"/>
                        <mxPoint x="306" y="450" as="sourcePoint"/>
                    </mxGeometry>
                </mxCell>
                <mxCell id="102" style="edgeStyle=orthogonalEdgeStyle;rounded=0;orthogonalLoop=1;jettySize=auto;html=1;strokeWidth=3;" parent="1" source="74" target="75" edge="1">
                    <mxGeometry relative="1" as="geometry"/>
                </mxCell>
                <mxCell id="74" value="テナントで、ユーザー同意が制限されている" style="rhombus;whiteSpace=wrap;html=1;strokeWidth=3;fontStyle=0;fontSize=12;" parent="1" vertex="1">
                    <mxGeometry x="161" y="120" width="290" height="80" as="geometry"/>
                </mxCell>
                <mxCell id="75" value="&lt;font style=&quot;font-size: 12px&quot;&gt;対象のアプリが&lt;br style=&quot;font-size: 12px&quot;&gt;&quot;管理者の同意が必要な権限&quot;&lt;br&gt;を要求している&lt;/font&gt;" style="rhombus;whiteSpace=wrap;html=1;strokeWidth=3;fontStyle=0;fontSize=12;" parent="1" vertex="1">
                    <mxGeometry x="161" y="240" width="290" height="80" as="geometry"/>
                </mxCell>
                <mxCell id="89" value="Yes" style="text;html=1;strokeColor=none;fillColor=none;align=center;verticalAlign=middle;whiteSpace=wrap;rounded=0;strokeWidth=3;fontStyle=0;fontSize=12;" parent="1" vertex="1">
                    <mxGeometry x="455" y="497" width="40" height="20" as="geometry"/>
                </mxCell>
                <mxCell id="93" value="No" style="text;html=1;strokeColor=none;fillColor=none;align=center;verticalAlign=middle;whiteSpace=wrap;rounded=0;strokeWidth=3;fontStyle=0;fontSize=12;" parent="1" vertex="1">
                    <mxGeometry x="313.5" y="565" width="40" height="20" as="geometry"/>
                </mxCell>
                <mxCell id="94" value="①" style="text;html=1;strokeColor=none;fillColor=none;align=center;verticalAlign=middle;whiteSpace=wrap;rounded=0;strokeWidth=2;fontSize=23;" parent="1" vertex="1">
                    <mxGeometry x="156" y="120" width="40" height="20" as="geometry"/>
                </mxCell>
                <mxCell id="95" value="②" style="text;html=1;strokeColor=none;fillColor=none;align=center;verticalAlign=middle;whiteSpace=wrap;rounded=0;strokeWidth=2;fontSize=23;" parent="1" vertex="1">
                    <mxGeometry x="156" y="240" width="40" height="20" as="geometry"/>
                </mxCell>
                <mxCell id="100" value="④" style="text;html=1;strokeColor=none;fillColor=none;align=center;verticalAlign=middle;whiteSpace=wrap;rounded=0;strokeWidth=2;fontSize=23;" parent="1" vertex="1">
                    <mxGeometry x="156" y="480" width="40" height="20" as="geometry"/>
                </mxCell>
                <mxCell id="101" value="③" style="text;html=1;strokeColor=none;fillColor=none;align=center;verticalAlign=middle;whiteSpace=wrap;rounded=0;strokeWidth=2;fontSize=23;" parent="1" vertex="1">
                    <mxGeometry x="156" y="360" width="40" height="20" as="geometry"/>
                </mxCell>
                <mxCell id="108" value="あなたが管理者による同意を実施可能か" style="text;html=1;strokeColor=none;fillColor=none;align=center;verticalAlign=middle;whiteSpace=wrap;rounded=0;fontSize=12;" parent="1" vertex="1">
                    <mxGeometry x="264.5" y="750" width="295" height="50" as="geometry"/>
                </mxCell>
                <mxCell id="112" value="一般ユーザーがアプリに同意可能か" style="text;html=1;strokeColor=none;fillColor=none;align=center;verticalAlign=middle;whiteSpace=wrap;rounded=0;fontSize=12;" parent="1" vertex="1">
                    <mxGeometry x="266" y="50" width="295" height="50" as="geometry"/>
                </mxCell>
                <mxCell id="113" value="No" style="text;html=1;strokeColor=none;fillColor=none;align=center;verticalAlign=middle;whiteSpace=wrap;rounded=0;strokeWidth=3;fontStyle=0;fontSize=12;" parent="1" vertex="1">
                    <mxGeometry x="311" y="210" width="40" height="20" as="geometry"/>
                </mxCell>
                <mxCell id="115" style="edgeStyle=orthogonalEdgeStyle;rounded=0;orthogonalLoop=1;jettySize=auto;html=1;strokeWidth=3;fontStyle=0;fontSize=12;exitX=0.5;exitY=1;exitDx=0;exitDy=0;entryX=0.5;entryY=0;entryDx=0;entryDy=0;" edge="1" parent="1" source="42">
                    <mxGeometry relative="1" as="geometry">
                        <mxPoint x="341" y="970" as="sourcePoint"/>
                        <mxPoint x="471" y="1050" as="targetPoint"/>
                        <Array as="points"/>
                    </mxGeometry>
                </mxCell>
                <mxCell id="120" value="Yes" style="text;html=1;strokeColor=none;fillColor=none;align=center;verticalAlign=middle;whiteSpace=wrap;rounded=0;strokeWidth=3;fontStyle=0;fontSize=12;" vertex="1" parent="1">
                    <mxGeometry x="488.5" y="1020" width="40" height="20" as="geometry"/>
                </mxCell>
                <mxCell id="130" value="グローバル管理者に&lt;br&gt;よる同意が必要" style="ellipse;whiteSpace=wrap;html=1;strokeWidth=3;fontStyle=0;fontSize=12;" vertex="1" parent="1">
                    <mxGeometry x="408.5" y="1047" width="120" height="80" as="geometry"/>
                </mxCell>
            </root>
        </mxGraphModel>
    </diagram>
</mxfile>